<?xml version="1.0" encoding="UTF-8" standalone="no"?>
<!DOCTYPE svg PUBLIC "-//W3C//DTD SVG 1.1//EN" "http://www.w3.org/Graphics/SVG/1.1/DTD/svg11.dtd">
<svg width="100%" height="100%" viewBox="0 0 2326 495" version="1.1" xmlns="http://www.w3.org/2000/svg" xmlns:xlink="http://www.w3.org/1999/xlink" xml:space="preserve" xmlns:serif="http://www.serif.com/" style="fill-rule:evenodd;clip-rule:evenodd;stroke-linecap:round;stroke-linejoin:round;stroke-miterlimit:1.5;">
    <g transform="matrix(1,0,0,1,-6288.86,-2981.13)">
        <g transform="matrix(0.211994,0,0,0.211994,5966.25,3081.02)">
            <circle cx="2604.54" cy="695.519" r="348.213" style="fill:none;stroke:rgb(0,0,255);stroke-width:49.14px;"/>
        </g>
        <g transform="matrix(1.40193e-17,0.228953,-0.228953,1.40193e-17,7746.59,2632.14)">
            <circle cx="2604.54" cy="695.519" r="348.213" style="fill:none;stroke:rgb(0,0,255);stroke-width:45.5px;"/>
        </g>
        <g transform="matrix(1.40193e-17,0.228953,-0.228953,1.40193e-17,7474.43,2632.14)">
            <circle cx="2604.54" cy="695.519" r="348.213" style="fill:none;stroke:rgb(0,0,255);stroke-width:45.5px;"/>
        </g>
        <g transform="matrix(1.40193e-17,0.228953,-0.228953,1.40193e-17,7203.21,2632.14)">
            <circle cx="2604.54" cy="695.519" r="348.213" style="fill:none;stroke:rgb(0,0,255);stroke-width:45.5px;"/>
        </g>
        <g transform="matrix(0.211994,0,0,0.211994,7572.41,3081.02)">
            <circle cx="2604.54" cy="695.519" r="348.213" style="fill:none;stroke:rgb(0,0,255);stroke-width:49.14px;"/>
        </g>
        <g transform="matrix(0.211994,0,0,0.211994,6225.67,3081.02)">
            <circle cx="2604.54" cy="695.519" r="348.213" style="fill:none;stroke:rgb(0,0,255);stroke-width:49.14px;"/>
        </g>
        <g transform="matrix(0.211994,0,0,0.211994,7832.27,3081.02)">
            <circle cx="2604.54" cy="695.519" r="348.213" style="fill:none;stroke:rgb(0,0,255);stroke-width:49.14px;"/>
        </g>
        <g transform="matrix(0.906426,0,0,0.174812,4271.08,2793.89)">
            <path d="M2231.83,3870.99L2231.83,1100.86L2427.28,1100.86L2427.28,1303.55L3411.07,1303.55L3411.07,1100.86L3606.53,1100.86L3606.53,1303.55L4590.31,1303.55L4590.31,1100.86L4785.77,1100.86L4785.77,3870.99L4590.31,3870.99L4590.31,3668.3L3606.53,3668.3L3606.53,3870.99L3411.07,3870.99L3411.07,3668.3L2427.28,3668.3L2427.28,3870.99L2231.83,3870.99Z" style="fill:none;stroke:rgb(0,0,255);stroke-width:15.96px;"/>
        </g>
        <g transform="matrix(1.40193e-17,0.228953,-0.228953,1.40193e-17,8018.36,2632.14)">
            <circle cx="2604.54" cy="695.519" r="348.213" style="fill:none;stroke:rgb(0,0,255);stroke-width:45.5px;"/>
        </g>
    </g>
</svg>
