<?xml version="1.0" encoding="UTF-8" standalone="no"?>
<!DOCTYPE svg PUBLIC "-//W3C//DTD SVG 1.1//EN" "http://www.w3.org/Graphics/SVG/1.1/DTD/svg11.dtd">
<svg width="100%" height="100%" viewBox="0 0 2416 1706" version="1.1" xmlns="http://www.w3.org/2000/svg" xmlns:xlink="http://www.w3.org/1999/xlink" xml:space="preserve" xmlns:serif="http://www.serif.com/" style="fill-rule:evenodd;clip-rule:evenodd;stroke-linecap:round;stroke-linejoin:round;stroke-miterlimit:1.5;">
    <g transform="matrix(1,0,0,1,-6265.42,-3708.35)">
        <g transform="matrix(0.941626,0,0,0.71678,4169.08,2779.2)">
            <path d="M4785.77,1350.84L4785.77,3621.01C4785.77,3647.11 4769.64,3668.3 4749.77,3668.3L2267.83,3668.3C2247.96,3668.3 2231.83,3647.11 2231.83,3621.01L2231.83,1350.84C2231.83,1324.74 2247.96,1303.55 2267.83,1303.55L4749.77,1303.55C4769.64,1303.55 4785.77,1324.74 4785.77,1350.84Z" style="fill:none;stroke:rgb(0,0,255);stroke-width:12.45px;"/>
        </g>
        <g transform="matrix(0.0694156,0,0,0.0149938,6159.83,3735.46)">
            <rect x="2231.83" y="1303.55" width="2553.94" height="2364.75" style="fill:none;stroke:rgb(0,0,255);stroke-width:207.44px;"/>
        </g>
        <g transform="matrix(4.25048e-18,0.0694156,-0.0149938,9.18108e-19,6369.8,3812.63)">
            <rect x="2231.83" y="1303.55" width="2553.94" height="2364.75" style="fill:none;stroke:rgb(0,0,255);stroke-width:207.44px;"/>
        </g>
        <g transform="matrix(4.25048e-18,0.0694156,-0.0149938,9.18108e-19,8649.33,3811.22)">
            <rect x="2231.83" y="1303.55" width="2553.94" height="2364.75" style="fill:none;stroke:rgb(0,0,255);stroke-width:207.44px;"/>
        </g>
        <g transform="matrix(4.25048e-18,0.0694156,-0.0149938,9.18108e-19,6369.8,4816.57)">
            <rect x="2231.83" y="1303.55" width="2553.94" height="2364.75" style="fill:none;stroke:rgb(0,0,255);stroke-width:207.44px;"/>
        </g>
        <g transform="matrix(4.25048e-18,0.0694156,-0.0149938,9.18108e-19,8649.33,4815.16)">
            <rect x="2231.83" y="1303.55" width="2553.94" height="2364.75" style="fill:none;stroke:rgb(0,0,255);stroke-width:207.44px;"/>
        </g>
        <g transform="matrix(4.25048e-18,0.0694156,-0.0149938,9.18108e-19,6369.8,4314.6)">
            <rect x="2231.83" y="1303.55" width="2553.94" height="2364.75" style="fill:none;stroke:rgb(0,0,255);stroke-width:207.44px;"/>
        </g>
        <g transform="matrix(4.25048e-18,0.0694156,-0.0149938,9.18108e-19,8649.33,4313.19)">
            <rect x="2231.83" y="1303.55" width="2553.94" height="2364.75" style="fill:none;stroke:rgb(0,0,255);stroke-width:207.44px;"/>
        </g>
        <g transform="matrix(0.0694156,0,0,0.0149938,6159.83,5306.33)">
            <rect x="2231.83" y="1303.55" width="2553.94" height="2364.75" style="fill:none;stroke:rgb(0,0,255);stroke-width:207.44px;"/>
        </g>
        <g transform="matrix(0.0694156,0,0,0.0149938,8297.63,3735.46)">
            <rect x="2231.83" y="1303.55" width="2553.94" height="2364.75" style="fill:none;stroke:rgb(0,0,255);stroke-width:207.44px;"/>
        </g>
        <g transform="matrix(0.0694156,0,0,0.0149938,8297.63,5306.33)">
            <rect x="2231.83" y="1303.55" width="2553.94" height="2364.75" style="fill:none;stroke:rgb(0,0,255);stroke-width:207.44px;"/>
        </g>
        <g transform="matrix(0.0694156,0,0,0.0149938,7228.73,3735.46)">
            <rect x="2231.83" y="1303.55" width="2553.94" height="2364.75" style="fill:none;stroke:rgb(0,0,255);stroke-width:207.44px;"/>
        </g>
        <g transform="matrix(0.0694156,0,0,0.0149938,7228.73,5306.33)">
            <rect x="2231.83" y="1303.55" width="2553.94" height="2364.75" style="fill:none;stroke:rgb(0,0,255);stroke-width:207.44px;"/>
        </g>
        <g transform="matrix(0.0695339,0,0,0.0695339,6227.76,3800.71)">
            <circle cx="2604.54" cy="695.519" r="348.213" style="fill:none;stroke:rgb(0,0,255);stroke-width:149.81px;"/>
        </g>
        <g transform="matrix(0.0695339,0,0,0.0695339,8354.61,3800.71)">
            <circle cx="2604.54" cy="695.519" r="348.213" style="fill:none;stroke:rgb(0,0,255);stroke-width:149.81px;"/>
        </g>
        <g transform="matrix(0.0695339,0,0,0.0695339,8354.24,5217.9)">
            <circle cx="2604.54" cy="695.519" r="348.213" style="fill:none;stroke:rgb(0,0,255);stroke-width:149.81px;"/>
        </g>
        <g transform="matrix(0.0695339,0,0,0.0695339,6227.76,5217.9)">
            <circle cx="2604.54" cy="695.519" r="348.213" style="fill:none;stroke:rgb(0,0,255);stroke-width:149.81px;"/>
        </g>
        <g transform="matrix(-0.220473,2.70002e-17,-2.70002e-17,-0.220473,8524.71,4374.96)">
            <circle cx="2604.54" cy="695.519" r="348.213" style="fill:none;stroke:rgb(0,0,255);stroke-width:47.25px;"/>
        </g>
        <g transform="matrix(0.0695339,0,0,0.0695339,6378.35,3910.4)">
            <circle cx="2604.54" cy="695.519" r="348.213" style="fill:none;stroke:rgb(0,0,255);stroke-width:149.81px;"/>
        </g>
        <g transform="matrix(0.0695339,0,0,0.0695339,6850.79,3910.4)">
            <circle cx="2604.54" cy="695.519" r="348.213" style="fill:none;stroke:rgb(0,0,255);stroke-width:149.81px;"/>
        </g>
        <g transform="matrix(0.0695339,0,0,0.0695339,6378.35,5115.13)">
            <circle cx="2604.54" cy="695.519" r="348.213" style="fill:none;stroke:rgb(0,0,255);stroke-width:149.81px;"/>
        </g>
        <g transform="matrix(0.0695339,0,0,0.0695339,6850.79,5115.13)">
            <circle cx="2604.54" cy="695.519" r="348.213" style="fill:none;stroke:rgb(0,0,255);stroke-width:149.81px;"/>
        </g>
        <g transform="matrix(0.169595,0,0,0.169595,7508.77,4644.78)">
            <circle cx="2604.54" cy="695.519" r="348.213" style="fill:none;stroke:rgb(0,0,255);stroke-width:61.42px;"/>
        </g>
        <g transform="matrix(0.0678379,0,0,0.0678379,7773.8,4610.26)">
            <circle cx="2604.54" cy="695.519" r="348.213" style="fill:none;stroke:rgb(0,0,255);stroke-width:153.55px;"/>
        </g>
        <g transform="matrix(8.30775e-18,0.135676,-0.135676,8.30775e-18,6888.33,4884.24)">
            <circle cx="2604.54" cy="695.519" r="348.213" style="fill:none;stroke:rgb(0,0,255);stroke-width:76.78px;"/>
        </g>
        <g transform="matrix(8.30775e-18,0.135676,-0.135676,8.30775e-18,6890.04,3525.35)">
            <circle cx="2604.54" cy="695.519" r="348.213" style="fill:none;stroke:rgb(0,0,255);stroke-width:76.78px;"/>
        </g>
    </g>
</svg>
