<?xml version="1.0" encoding="UTF-8" standalone="no"?>
<!DOCTYPE svg PUBLIC "-//W3C//DTD SVG 1.1//EN" "http://www.w3.org/Graphics/SVG/1.1/DTD/svg11.dtd">
<svg width="100%" height="100%" viewBox="0 0 495 1546" version="1.1" xmlns="http://www.w3.org/2000/svg" xmlns:xlink="http://www.w3.org/1999/xlink" xml:space="preserve" xmlns:serif="http://www.serif.com/" style="fill-rule:evenodd;clip-rule:evenodd;stroke-linecap:round;stroke-linejoin:round;stroke-miterlimit:1.5;">
    <g transform="matrix(1,0,0,1,-8786.37,-1218.87)">
        <g transform="matrix(3.68129e-17,0.601201,-0.174812,1.07041e-17,9468.27,-117.695)">
            <path d="M2818.84,3668.3L2818.84,3870.99L2524.16,3870.99L2524.16,3668.3L2231.83,3668.3L2231.83,1303.55L2526.51,1303.55L2526.51,1100.86L2821.2,1100.86L2821.2,1303.55L3361.45,1303.55L3361.45,1100.86L3656.14,1100.86L3656.14,1303.55L4196.4,1303.55L4196.4,1100.86L4491.08,1100.86L4491.08,1303.55L4785.77,1303.55L4785.77,3668.3L4488.73,3668.3L4488.73,3870.99L4194.04,3870.99L4194.04,3668.3L3653.79,3668.3L3653.79,3870.99L3359.1,3870.99L3359.1,3668.3L2818.84,3668.3Z" style="fill:none;stroke:rgb(0,0,255);stroke-width:23.53px;"/>
        </g>
        <g transform="matrix(1.29809e-17,0.211994,-0.211994,1.29809e-17,9181.14,819.247)">
            <circle cx="2604.54" cy="695.519" r="348.213" style="fill:none;stroke:rgb(0,0,255);stroke-width:49.14px;"/>
        </g>
        <g transform="matrix(1.29809e-17,0.211994,-0.211994,1.29809e-17,9181.14,1563.7)">
            <circle cx="2604.54" cy="695.519" r="348.213" style="fill:none;stroke:rgb(0,0,255);stroke-width:49.14px;"/>
        </g>
        <g transform="matrix(1.29809e-17,0.211994,-0.211994,1.29809e-17,9181.14,1067.52)">
            <circle cx="2604.54" cy="695.519" r="348.213" style="fill:none;stroke:rgb(0,0,255);stroke-width:49.14px;"/>
        </g>
        <g transform="matrix(1.29809e-17,0.211994,-0.211994,1.29809e-17,9181.14,1811.97)">
            <circle cx="2604.54" cy="695.519" r="348.213" style="fill:none;stroke:rgb(0,0,255);stroke-width:49.14px;"/>
        </g>
        <g transform="matrix(1.29809e-17,0.211994,-0.211994,1.29809e-17,9181.14,1315.6)">
            <circle cx="2604.54" cy="695.519" r="348.213" style="fill:none;stroke:rgb(0,0,255);stroke-width:49.14px;"/>
        </g>
        <g transform="matrix(1.29809e-17,0.211994,-0.211994,1.29809e-17,9181.14,2060.06)">
            <circle cx="2604.54" cy="695.519" r="348.213" style="fill:none;stroke:rgb(0,0,255);stroke-width:49.14px;"/>
        </g>
    </g>
</svg>
