<?xml version="1.0" encoding="UTF-8" standalone="no"?>
<!DOCTYPE svg PUBLIC "-//W3C//DTD SVG 1.1//EN" "http://www.w3.org/Graphics/SVG/1.1/DTD/svg11.dtd">
<svg width="100%" height="100%" viewBox="0 0 2326 495" version="1.1" xmlns="http://www.w3.org/2000/svg" xmlns:xlink="http://www.w3.org/1999/xlink" xml:space="preserve" xmlns:serif="http://www.serif.com/" style="fill-rule:evenodd;clip-rule:evenodd;stroke-linecap:round;stroke-linejoin:round;stroke-miterlimit:1.5;">
    <g transform="matrix(1,0,0,1,-6288.86,-492.249)">
        <g transform="matrix(0.211994,0,0,0.211994,5990.15,592.138)">
            <circle cx="2604.54" cy="695.519" r="348.213" style="fill:none;stroke:rgb(0,0,255);stroke-width:49.14px;"/>
        </g>
        <g transform="matrix(0.211994,0,0,0.211994,7289.82,592.138)">
            <circle cx="2604.54" cy="695.519" r="348.213" style="fill:none;stroke:rgb(0,0,255);stroke-width:49.14px;"/>
        </g>
        <g transform="matrix(0.211994,0,0,0.211994,7029.9,592.138)">
            <circle cx="2604.54" cy="695.519" r="348.213" style="fill:none;stroke:rgb(0,0,255);stroke-width:49.14px;"/>
        </g>
        <g transform="matrix(0.211994,0,0,0.211994,6250.43,592.138)">
            <circle cx="2604.54" cy="695.519" r="348.213" style="fill:none;stroke:rgb(0,0,255);stroke-width:49.14px;"/>
        </g>
        <g transform="matrix(0.211994,0,0,0.211994,7550.09,592.138)">
            <circle cx="2604.54" cy="695.519" r="348.213" style="fill:none;stroke:rgb(0,0,255);stroke-width:49.14px;"/>
        </g>
        <g transform="matrix(0.211994,0,0,0.211994,6510.51,592.138)">
            <circle cx="2604.54" cy="695.519" r="348.213" style="fill:none;stroke:rgb(0,0,255);stroke-width:49.14px;"/>
        </g>
        <g transform="matrix(0.211994,0,0,0.211994,7810.17,592.138)">
            <circle cx="2604.54" cy="695.519" r="348.213" style="fill:none;stroke:rgb(0,0,255);stroke-width:49.14px;"/>
        </g>
        <g transform="matrix(0.211994,0,0,0.211994,6770.21,592.138)">
            <circle cx="2604.54" cy="695.519" r="348.213" style="fill:none;stroke:rgb(0,0,255);stroke-width:49.14px;"/>
        </g>
        <g transform="matrix(0.0693693,0,0,0.0149838,6139.24,926.744)">
            <path d="M2231.83,3668.3L2231.83,-28650L4785.77,-28650L4785.77,-26285.2L17640.6,-26285.2L17640.6,-28650L20194.6,-28650L20194.6,-26285.2L33049.4,-26285.2L33049.4,-28650L35603.4,-28650L35603.4,3668.3L33049.4,3668.3L33049.4,1303.55L20194.6,1303.55L20194.6,3668.3L17640.6,3668.3L17640.6,1303.55L4785.77,1303.55L4785.77,3668.3L2231.83,3668.3Z" style="fill:none;stroke:rgb(0,0,255);stroke-width:207.57px;"/>
        </g>
    </g>
</svg>
