<?xml version="1.0" encoding="UTF-8" standalone="no"?>
<!DOCTYPE svg PUBLIC "-//W3C//DTD SVG 1.1//EN" "http://www.w3.org/Graphics/SVG/1.1/DTD/svg11.dtd">
<svg width="100%" height="100%" viewBox="0 0 2416 1706" version="1.1" xmlns="http://www.w3.org/2000/svg" xmlns:xlink="http://www.w3.org/1999/xlink" xml:space="preserve" xmlns:serif="http://www.serif.com/" style="fill-rule:evenodd;clip-rule:evenodd;stroke-linecap:round;stroke-linejoin:round;stroke-miterlimit:1.5;">
    <g transform="matrix(1,0,0,1,-6235.49,-1125.88)">
        <g transform="matrix(0.941626,0,0,0.71678,4139.15,196.728)">
            <path d="M4785.77,1350.84L4785.77,3621.01C4785.77,3647.11 4769.64,3668.3 4749.77,3668.3L2267.83,3668.3C2247.96,3668.3 2231.83,3647.11 2231.83,3621.01L2231.83,1350.84C2231.83,1324.74 2247.96,1303.55 2267.83,1303.55L4749.77,1303.55C4769.64,1303.55 4785.77,1324.74 4785.77,1350.84Z" style="fill:none;stroke:rgb(0,0,255);stroke-width:12.45px;"/>
        </g>
        <g transform="matrix(0.0694156,0,0,0.0149938,6129.9,1152.99)">
            <rect x="2231.83" y="1303.55" width="2553.94" height="2364.75" style="fill:none;stroke:rgb(0,0,255);stroke-width:207.44px;"/>
        </g>
        <g transform="matrix(4.25048e-18,0.0694156,-0.0149938,9.18108e-19,6339.87,1230.17)">
            <rect x="2231.83" y="1303.55" width="2553.94" height="2364.75" style="fill:none;stroke:rgb(0,0,255);stroke-width:207.44px;"/>
        </g>
        <g transform="matrix(4.25048e-18,0.0694156,-0.0149938,9.18108e-19,8619.4,1228.75)">
            <rect x="2231.83" y="1303.55" width="2553.94" height="2364.75" style="fill:none;stroke:rgb(0,0,255);stroke-width:207.44px;"/>
        </g>
        <g transform="matrix(4.25048e-18,0.0694156,-0.0149938,9.18108e-19,6339.87,2234.1)">
            <rect x="2231.83" y="1303.55" width="2553.94" height="2364.75" style="fill:none;stroke:rgb(0,0,255);stroke-width:207.44px;"/>
        </g>
        <g transform="matrix(4.25048e-18,0.0694156,-0.0149938,9.18108e-19,8619.4,2232.69)">
            <rect x="2231.83" y="1303.55" width="2553.94" height="2364.75" style="fill:none;stroke:rgb(0,0,255);stroke-width:207.44px;"/>
        </g>
        <g transform="matrix(4.25048e-18,0.0694156,-0.0149938,9.18108e-19,6339.87,1732.13)">
            <rect x="2231.83" y="1303.55" width="2553.94" height="2364.75" style="fill:none;stroke:rgb(0,0,255);stroke-width:207.44px;"/>
        </g>
        <g transform="matrix(4.25048e-18,0.0694156,-0.0149938,9.18108e-19,8619.4,1730.72)">
            <rect x="2231.83" y="1303.55" width="2553.94" height="2364.75" style="fill:none;stroke:rgb(0,0,255);stroke-width:207.44px;"/>
        </g>
        <g transform="matrix(0.0694156,0,0,0.0149938,6129.9,2723.86)">
            <rect x="2231.83" y="1303.55" width="2553.94" height="2364.75" style="fill:none;stroke:rgb(0,0,255);stroke-width:207.44px;"/>
        </g>
        <g transform="matrix(0.0694156,0,0,0.0149938,8267.7,1152.99)">
            <rect x="2231.83" y="1303.55" width="2553.94" height="2364.75" style="fill:none;stroke:rgb(0,0,255);stroke-width:207.44px;"/>
        </g>
        <g transform="matrix(0.0694156,0,0,0.0149938,8267.7,2723.86)">
            <rect x="2231.83" y="1303.55" width="2553.94" height="2364.75" style="fill:none;stroke:rgb(0,0,255);stroke-width:207.44px;"/>
        </g>
        <g transform="matrix(0.0694156,0,0,0.0149938,7198.8,1152.99)">
            <rect x="2231.83" y="1303.55" width="2553.94" height="2364.75" style="fill:none;stroke:rgb(0,0,255);stroke-width:207.44px;"/>
        </g>
        <g transform="matrix(0.0694156,0,0,0.0149938,7198.8,2723.86)">
            <rect x="2231.83" y="1303.55" width="2553.94" height="2364.75" style="fill:none;stroke:rgb(0,0,255);stroke-width:207.44px;"/>
        </g>
        <g transform="matrix(0.0678379,0,0,0.0678379,7622.19,1327.61)">
            <circle cx="2604.54" cy="695.519" r="348.213" style="fill:none;stroke:rgb(0,0,255);stroke-width:153.55px;"/>
        </g>
        <g transform="matrix(0.0678379,0,0,0.0678379,6202.25,1219.42)">
            <circle cx="2604.54" cy="695.519" r="348.213" style="fill:none;stroke:rgb(0,0,255);stroke-width:153.55px;"/>
        </g>
        <g transform="matrix(0.0678379,0,0,0.0678379,8329.1,1219.42)">
            <circle cx="2604.54" cy="695.519" r="348.213" style="fill:none;stroke:rgb(0,0,255);stroke-width:153.55px;"/>
        </g>
        <g transform="matrix(0.0678379,0,0,0.0678379,8328.72,2636.61)">
            <circle cx="2604.54" cy="695.519" r="348.213" style="fill:none;stroke:rgb(0,0,255);stroke-width:153.55px;"/>
        </g>
        <g transform="matrix(0.0678379,0,0,0.0678379,6202.25,2636.61)">
            <circle cx="2604.54" cy="695.519" r="348.213" style="fill:none;stroke:rgb(0,0,255);stroke-width:153.55px;"/>
        </g>
        <g transform="matrix(0.0678379,0,0,0.0678379,8094.63,1327.61)">
            <circle cx="2604.54" cy="695.519" r="348.213" style="fill:none;stroke:rgb(0,0,255);stroke-width:153.55px;"/>
        </g>
        <g transform="matrix(0.0678379,0,0,0.0678379,7622.19,2532.34)">
            <circle cx="2604.54" cy="695.519" r="348.213" style="fill:none;stroke:rgb(0,0,255);stroke-width:153.55px;"/>
        </g>
        <g transform="matrix(0.0678379,0,0,0.0678379,8094.63,2532.34)">
            <circle cx="2604.54" cy="695.519" r="348.213" style="fill:none;stroke:rgb(0,0,255);stroke-width:153.55px;"/>
        </g>
    </g>
</svg>
